<svg width="769" height="259" viewBox="0 0 769 259" fill="none" xmlns="http://www.w3.org/2000/svg">
<path d="M309.703 126.921L309.615 127.448L309.088 127.624C306.275 128.854 303.814 130.305 301.705 131.975C299.596 133.645 297.765 135.622 296.212 137.907L295.772 138.347C294.688 138.786 293.561 139.372 292.389 140.104C291.217 140.837 290.045 141.657 288.873 142.565C287.73 143.474 286.632 144.455 285.577 145.51C284.552 146.535 283.629 147.59 282.809 148.674C282.75 148.908 282.735 149.143 282.765 149.377C282.794 149.582 282.809 149.802 282.809 150.036C282.809 151.589 282.926 153.112 283.16 154.606C283.395 156.071 283.79 157.551 284.347 159.045L284.522 159.484L284.347 159.836C284.317 159.895 284.156 160.158 283.863 160.627C283.57 161.066 283.087 161.55 282.413 162.077C281.739 162.604 280.816 163.088 279.645 163.527C278.502 163.967 277.066 164.187 275.338 164.187C273.609 164.187 272.174 163.952 271.031 163.483C269.918 163.015 269.024 162.502 268.351 161.945C267.706 161.389 267.252 160.876 266.988 160.407C266.725 159.909 266.593 159.631 266.593 159.572L266.417 159.133L266.593 158.781C267.267 157.141 267.765 155.471 268.087 153.771C268.409 152.072 268.57 150.314 268.57 148.498C268.57 147.268 268.497 146.037 268.351 144.807C268.233 143.547 268.014 142.258 267.691 140.939V140.412C268.043 138.947 268.321 137.512 268.526 136.105C268.761 134.699 268.878 133.308 268.878 131.931C268.878 130.349 268.746 128.825 268.482 127.36C268.219 125.866 267.867 124.372 267.428 122.878L267.34 122.482L267.516 122.131C268.775 118.908 269.405 115.7 269.405 112.507C269.405 111.247 269.303 109.987 269.098 108.728C268.922 107.468 268.629 106.179 268.219 104.86L268.043 104.333L268.395 103.85C268.424 103.82 268.541 103.703 268.746 103.498C268.951 103.264 269.259 103 269.669 102.707C270.079 102.385 270.606 102.077 271.251 101.784C271.896 101.462 272.657 101.198 273.536 100.993C274.093 100.114 274.723 99.4258 275.426 98.9277C276.129 98.4004 276.788 98.0049 277.403 97.7412C278.048 97.4775 278.59 97.3018 279.029 97.2139C279.498 97.126 279.762 97.0674 279.82 97.0381H280.304L280.655 97.3018C281.593 98.1514 282.53 98.8838 283.468 99.499C284.405 100.085 285.372 100.612 286.368 101.081C287.394 101.521 288.478 101.901 289.62 102.224C290.763 102.546 292.008 102.824 293.355 103.059C293.502 103.059 293.648 103.073 293.795 103.103C293.941 103.132 294.088 103.146 294.234 103.146H294.586L294.981 103.41C296.153 104.406 297.267 105.271 298.321 106.003C299.405 106.706 300.519 107.307 301.661 107.805C302.804 108.273 304.005 108.64 305.265 108.903C306.524 109.167 307.916 109.343 309.439 109.431H310.011L310.362 109.914C310.362 109.973 310.406 110.104 310.494 110.31C310.611 110.515 310.729 110.808 310.846 111.188C310.963 111.54 311.065 111.979 311.153 112.507C311.271 113.005 311.329 113.576 311.329 114.221C311.329 114.807 311.271 115.437 311.153 116.11C311.065 116.784 310.89 117.502 310.626 118.264C310.187 119.494 309.674 120.52 309.088 121.34C309.41 122.102 309.615 122.834 309.703 123.537C309.82 124.211 309.879 124.797 309.879 125.295C309.879 125.734 309.85 126.101 309.791 126.394C309.732 126.687 309.703 126.862 309.703 126.921ZM289.84 118.879L289.269 118.615C288.155 118 287.115 117.414 286.148 116.857C285.182 116.301 284.244 115.817 283.336 115.407C283.336 116.491 283.424 117.561 283.6 118.615C283.775 119.641 284.024 120.695 284.347 121.779V122.395C283.614 124.885 283.16 127.316 282.984 129.689C283.482 129.191 283.951 128.693 284.391 128.195C284.859 127.668 285.138 127.243 285.226 126.921L285.489 126.569L285.885 126.481C289.752 125.017 293.077 122.878 295.86 120.065C294.923 119.743 293.956 119.494 292.96 119.318C291.993 119.143 290.953 118.996 289.84 118.879ZM355.934 127.448L355.846 127.976L355.318 128.239C353.414 129.06 351.671 129.982 350.089 131.008C348.536 132.004 347.13 133.161 345.87 134.479C346.368 135.827 347.013 137.043 347.804 138.127C348.595 139.182 349.635 140.31 350.924 141.511L351.188 141.95C351.686 144.47 352.506 146.755 353.648 148.806C354.82 150.856 356.402 152.731 358.395 154.431L358.746 154.65V155.09C358.746 155.148 358.717 155.427 358.658 155.925C358.629 156.423 358.453 157.038 358.131 157.771C357.838 158.503 357.34 159.294 356.637 160.144C355.934 160.993 354.923 161.799 353.604 162.561C352.579 163.146 351.612 163.542 350.704 163.747C349.825 163.981 349.049 164.099 348.375 164.099C347.76 164.099 347.218 164.04 346.749 163.923C346.28 163.806 345.885 163.674 345.562 163.527C345.24 163.381 344.991 163.249 344.815 163.132C344.64 163.015 344.537 162.941 344.508 162.912L344.244 162.736L344.156 162.297C344.01 161.154 343.775 160.085 343.453 159.089C343.16 158.093 342.779 157.126 342.311 156.188C341.842 155.251 341.285 154.328 340.641 153.42C340.025 152.512 339.337 151.589 338.575 150.651C338.282 150.358 338.077 150.183 337.96 150.124L337.696 149.86V149.509C337.462 148.132 337.184 146.916 336.861 145.861C336.568 144.777 336.158 143.767 335.631 142.829C334.4 143.737 333.214 144.748 332.071 145.861C330.958 146.975 329.947 148.132 329.039 149.333C328.98 149.567 328.966 149.787 328.995 149.992C329.024 150.197 329.039 150.417 329.039 150.651C329.039 152.204 329.156 153.728 329.391 155.222C329.625 156.687 330.021 158.166 330.577 159.66L330.753 160.012L330.577 160.495C330.548 160.554 330.387 160.817 330.094 161.286C329.801 161.726 329.317 162.209 328.644 162.736C327.97 163.264 327.047 163.732 325.875 164.143C324.732 164.582 323.297 164.802 321.568 164.802C319.84 164.802 318.404 164.567 317.262 164.099C316.148 163.659 315.255 163.161 314.581 162.604C313.937 162.019 313.482 161.491 313.219 161.022C312.955 160.554 312.823 160.29 312.823 160.231L312.647 159.748L312.823 159.396C313.497 157.756 313.995 156.101 314.317 154.431C314.64 152.731 314.801 150.974 314.801 149.157C314.801 147.927 314.728 146.696 314.581 145.466C314.464 144.206 314.244 142.917 313.922 141.599V141.027C314.273 139.592 314.552 138.171 314.757 136.765C314.991 135.329 315.108 133.938 315.108 132.59C315.108 131.008 314.977 129.47 314.713 127.976C314.449 126.481 314.098 124.987 313.658 123.493L313.57 123.142L313.746 122.79C315.006 119.567 315.636 116.345 315.636 113.122C315.636 111.804 315.533 110.515 315.328 109.255C315.152 107.995 314.859 106.706 314.449 105.388L314.273 104.86L314.625 104.421C314.654 104.392 314.771 104.274 314.977 104.069C315.182 103.835 315.489 103.571 315.899 103.278C316.31 102.956 316.837 102.648 317.481 102.355C318.126 102.033 318.888 101.784 319.767 101.608C320.323 100.729 320.953 100.041 321.656 99.543C322.359 99.0156 323.019 98.6201 323.634 98.3564C324.278 98.0928 324.82 97.917 325.26 97.8291C325.729 97.7412 325.992 97.6826 326.051 97.6533H326.534L326.886 97.917C327.735 98.6787 328.673 99.4111 329.698 100.114C330.724 100.817 331.808 101.433 332.95 101.96C334.093 102.487 335.294 102.912 336.554 103.234C337.813 103.527 339.117 103.674 340.465 103.674L341.212 103.981C342.384 105.007 343.497 105.886 344.552 106.618C345.636 107.321 346.749 107.907 347.892 108.376C349.034 108.845 350.235 109.211 351.495 109.475C352.755 109.738 354.146 109.914 355.67 110.002L356.241 110.09L356.593 110.529C356.593 110.588 356.637 110.72 356.725 110.925C356.842 111.13 356.959 111.423 357.076 111.804C357.193 112.155 357.296 112.595 357.384 113.122C357.501 113.62 357.56 114.191 357.56 114.836C357.56 115.422 357.501 116.052 357.384 116.726C357.296 117.399 357.12 118.117 356.856 118.879C356.446 120.08 355.934 121.076 355.318 121.867C355.641 122.629 355.846 123.347 355.934 124.021C356.051 124.665 356.109 125.236 356.109 125.734C356.109 126.232 356.08 126.628 356.021 126.921C355.963 127.214 355.934 127.39 355.934 127.448ZM336.07 119.45L335.499 119.274C334.386 118.63 333.346 118.029 332.379 117.473C331.412 116.887 330.475 116.374 329.566 115.935C329.566 117.019 329.654 118.103 329.83 119.187C330.006 120.241 330.255 121.311 330.577 122.395V123.054C329.845 125.515 329.391 127.917 329.215 130.261C329.684 129.792 330.108 129.323 330.489 128.854C330.899 128.386 331.222 127.946 331.456 127.536L332.115 127.009C334.049 126.276 335.851 125.397 337.521 124.372C339.22 123.317 340.772 122.058 342.179 120.593C340.362 120.007 338.326 119.626 336.07 119.45ZM411.876 155.793L411.7 156.232C411.7 156.262 411.554 156.555 411.261 157.111C410.997 157.668 410.484 158.283 409.723 158.957C408.99 159.602 407.965 160.202 406.646 160.759C405.357 161.286 403.702 161.55 401.681 161.55C400.362 161.55 399.249 161.403 398.341 161.11C397.433 160.788 396.656 160.393 396.012 159.924C394.664 160.129 393.331 160.422 392.013 160.803C390.724 161.154 389.449 161.623 388.189 162.209L387.926 162.385L387.662 162.297C386.93 162.297 386.227 162.268 385.553 162.209C384.908 162.15 384.234 162.121 383.531 162.121C381.158 162.121 378.712 162.37 376.192 162.868C373.702 163.366 371.461 164.128 369.469 165.153L369.029 165.329L368.678 165.241C368.766 165.271 368.546 165.183 368.019 164.978C367.491 164.772 366.876 164.392 366.173 163.835C365.47 163.308 364.781 162.575 364.107 161.638C363.463 160.671 363.067 159.44 362.921 157.946C362.13 157.507 361.471 157.038 360.943 156.54C360.445 156.013 360.035 155.529 359.713 155.09C359.42 154.65 359.215 154.284 359.098 153.991C358.98 153.669 358.922 153.493 358.922 153.464L358.834 153.024L359.01 152.629C359.566 151.633 360.05 150.695 360.46 149.816C360.87 148.938 361.207 148.088 361.471 147.268C361.734 146.418 361.925 145.568 362.042 144.719C362.188 143.84 362.262 142.888 362.262 141.862C362.262 140.661 362.174 139.313 361.998 137.819L362.086 137.248C362.848 135.402 363.404 133.688 363.756 132.106C364.137 130.524 364.327 128.942 364.327 127.36C364.327 126.452 364.269 125.529 364.151 124.592C364.034 123.625 363.888 122.629 363.712 121.604L363.624 121.164L363.8 120.9C364.474 119.582 365.03 118.381 365.47 117.297C365.909 116.184 366.246 115.07 366.48 113.957C366.041 113.371 365.66 112.595 365.338 111.628C365.045 110.632 364.898 109.431 364.898 108.024C364.898 106.149 365.133 104.626 365.602 103.454C366.1 102.253 366.642 101.315 367.228 100.642C367.843 99.9678 368.399 99.5137 368.897 99.2793C369.396 99.0449 369.674 98.9277 369.732 98.9277L370.172 98.752L370.567 98.9277C372.091 99.6895 373.629 100.246 375.182 100.598C376.734 100.92 378.375 101.081 380.104 101.081C380.807 101.081 381.627 101.081 382.564 101.081C383.502 101.052 384.352 100.905 385.113 100.642L385.509 100.554L385.86 100.729C387.442 101.462 388.907 102.019 390.255 102.399C391.603 102.78 392.95 103 394.298 103.059C395.03 102.736 395.851 102.443 396.759 102.18C397.667 101.916 398.707 101.784 399.879 101.784C401.051 101.784 402.091 101.931 402.999 102.224C403.907 102.487 404.669 102.795 405.284 103.146C405.929 103.498 406.412 103.82 406.734 104.113C407.086 104.406 407.291 104.567 407.35 104.597L407.789 105.036L407.613 105.563C407.291 106.853 407.042 108.083 406.866 109.255C406.72 110.397 406.646 111.511 406.646 112.595C406.646 114.06 406.793 115.48 407.086 116.857C407.408 118.205 407.862 119.611 408.448 121.076L408.624 121.34L408.536 121.691C408.36 122.805 408.214 123.874 408.097 124.899C407.979 125.896 407.921 126.892 407.921 127.888C407.921 129.792 408.111 131.623 408.492 133.381C408.902 135.109 409.518 136.853 410.338 138.61L410.514 138.874L410.338 139.313C410.016 140.603 409.767 141.804 409.591 142.917C409.415 144.001 409.327 145.056 409.327 146.081C409.327 147.634 409.518 149.157 409.898 150.651C410.279 152.116 410.88 153.713 411.7 155.441L411.876 155.793ZM380.631 122.878L380.543 123.142C379.693 125.134 379.078 126.95 378.697 128.591C378.316 130.202 378.126 131.799 378.126 133.381C378.126 134.318 378.185 135.256 378.302 136.193C378.419 137.131 378.595 138.112 378.829 139.138L378.917 139.489L378.741 139.885C377.892 141.584 377.232 143.093 376.764 144.411C376.324 145.7 376.061 147.033 375.973 148.41C376.676 148.322 377.438 148.22 378.258 148.103C379.078 147.985 379.869 147.854 380.631 147.707C381.422 147.531 382.154 147.326 382.828 147.092C383.531 146.857 384.117 146.579 384.586 146.257L384.938 146.081L385.289 146.169C386.314 146.403 387.311 146.564 388.277 146.652C389.273 146.74 390.24 146.784 391.178 146.784C392.467 146.784 393.756 146.696 395.045 146.521C394.898 145.671 394.708 144.792 394.474 143.884C394.269 142.946 394.005 141.965 393.683 140.939L393.595 140.412C393.946 138.449 394.122 136.53 394.122 134.655C394.122 132.751 393.917 130.935 393.507 129.206C393.126 127.448 392.555 125.661 391.793 123.845L391.617 123.493L391.705 123.054C392.027 121.911 392.291 120.798 392.496 119.714C392.701 118.63 392.833 117.546 392.892 116.462C392.481 116.403 392.071 116.359 391.661 116.33C391.28 116.301 390.899 116.286 390.519 116.286C389.698 116.286 388.878 116.345 388.058 116.462C387.237 116.579 386.358 116.755 385.421 116.989L384.762 116.901C383.912 116.755 383.136 116.594 382.433 116.418C381.729 116.213 381.012 116.022 380.279 115.847C380.221 116.286 380.191 116.711 380.191 117.121C380.191 117.531 380.191 117.941 380.191 118.352C380.191 118.996 380.221 119.655 380.279 120.329C380.367 121.003 380.484 121.721 380.631 122.482V122.878ZM453.272 150.036C453.272 150.124 453.258 150.417 453.229 150.915C453.199 151.413 453.038 152.043 452.745 152.805C452.481 153.537 452.027 154.343 451.383 155.222C450.738 156.101 449.786 156.95 448.526 157.771C448.204 158.444 447.882 158.972 447.56 159.353C447.237 159.733 447.047 159.953 446.988 160.012L446.637 160.495L445.978 160.407C444.952 160.261 444.044 160.144 443.253 160.056C442.491 159.968 441.788 159.924 441.144 159.924C440.47 159.924 439.84 159.968 439.254 160.056C438.668 160.144 438.067 160.275 437.452 160.451C436.866 160.627 436.236 160.861 435.562 161.154C434.918 161.418 434.2 161.74 433.409 162.121L432.75 162.209C431.988 162.209 431.241 162.18 430.509 162.121C429.806 162.033 429.176 161.989 428.619 161.989C427.828 161.989 427.11 162.033 426.466 162.121C425.851 162.209 425.235 162.355 424.62 162.561C424.005 162.766 423.346 163.029 422.643 163.352C421.939 163.674 421.119 164.069 420.182 164.538L419.698 164.802L419.347 164.714C418.233 164.333 417.252 163.747 416.402 162.956C415.67 162.282 414.996 161.33 414.381 160.1C413.795 158.869 413.502 157.258 413.502 155.266C413.502 154.035 413.663 152.995 413.985 152.146C414.337 151.296 414.718 150.607 415.128 150.08C415.567 149.553 415.963 149.172 416.314 148.938C416.666 148.674 416.871 148.527 416.93 148.498L417.281 148.234L417.721 148.322C418.629 148.498 419.42 148.63 420.094 148.718C420.768 148.806 421.397 148.85 421.983 148.85C422.511 148.85 423.023 148.82 423.521 148.762C424.049 148.674 424.605 148.557 425.191 148.41C425.777 148.234 426.422 148.029 427.125 147.795C427.857 147.531 428.722 147.224 429.718 146.872L430.069 146.696L430.421 146.784C431.798 147.077 433.028 147.268 434.112 147.355C433.761 146.799 433.336 146.257 432.838 145.729C432.369 145.173 431.871 144.602 431.344 144.016L431.036 143.576C430.626 142.082 430.172 140.72 429.674 139.489C429.176 138.229 428.59 137.058 427.916 135.974C427.271 134.89 426.539 133.864 425.719 132.897C424.898 131.931 423.976 130.979 422.95 130.041L422.599 129.777V129.426C422.101 126.438 421.192 123.713 419.874 121.252C418.556 118.762 416.798 116.506 414.601 114.484L414.205 114.133V113.605C414.205 113.576 414.234 113.444 414.293 113.21C414.352 112.976 414.454 112.668 414.601 112.287C414.747 111.906 414.967 111.467 415.26 110.969C415.553 110.471 415.934 109.958 416.402 109.431C416.344 109.284 416.314 109.152 416.314 109.035C416.314 108.918 416.314 108.786 416.314 108.64C416.314 107.409 416.476 106.369 416.798 105.52C417.149 104.67 417.53 103.981 417.94 103.454C418.351 102.927 418.731 102.546 419.083 102.312C419.435 102.048 419.64 101.901 419.698 101.872L420.094 101.696L420.533 101.784C422.174 102.165 423.551 102.355 424.664 102.355C425.191 102.355 425.689 102.326 426.158 102.268C426.627 102.18 427.125 102.062 427.652 101.916C428.209 101.74 428.81 101.55 429.454 101.345C430.099 101.14 430.846 100.905 431.695 100.642C431.842 100.583 431.974 100.539 432.091 100.51C432.208 100.451 432.34 100.378 432.486 100.29L432.838 100.07L433.233 100.158C434.317 100.393 435.27 100.568 436.09 100.686C436.939 100.773 437.716 100.817 438.419 100.817C439.737 100.817 441.012 100.627 442.242 100.246C443.473 99.8652 444.967 99.2793 446.725 98.4883L447.252 98.1807L447.779 98.4883C447.809 98.5176 447.999 98.6494 448.351 98.8838C448.731 99.1182 449.156 99.499 449.625 100.026C450.094 100.554 450.562 101.242 451.031 102.092C451.5 102.941 451.837 103.981 452.042 105.212C452.101 105.534 452.145 105.871 452.174 106.223C452.203 106.545 452.218 106.838 452.218 107.102C452.218 108.098 452.101 108.991 451.866 109.782C451.632 110.544 451.368 111.203 451.075 111.76C450.782 112.287 450.504 112.712 450.24 113.034C450.006 113.327 449.874 113.488 449.845 113.518L449.405 113.869L448.79 113.781C447.794 113.635 446.9 113.532 446.109 113.474C445.348 113.386 444.645 113.342 444 113.342C443.326 113.342 442.696 113.386 442.11 113.474C441.524 113.532 440.924 113.649 440.309 113.825C439.723 114.001 439.093 114.235 438.419 114.528C437.745 114.792 436.998 115.114 436.178 115.495L435.914 115.671L435.562 115.583C434.83 115.583 434.171 115.568 433.585 115.539C432.999 115.51 432.457 115.495 431.959 115.495C432.545 116.491 433.189 117.443 433.893 118.352C434.625 119.23 435.445 120.08 436.354 120.9L436.617 121.34C437.057 122.922 437.525 124.372 438.023 125.69C438.521 126.979 439.093 128.181 439.737 129.294C440.382 130.378 441.114 131.403 441.935 132.37C442.784 133.337 443.751 134.274 444.835 135.183L445.187 135.842C445.479 137.365 445.816 138.742 446.197 139.973C446.607 141.174 447.105 142.302 447.691 143.356C448.307 144.411 449.024 145.422 449.845 146.389C450.694 147.355 451.72 148.337 452.921 149.333L453.185 149.597L453.272 150.036ZM498.932 126.921L498.844 127.448L498.316 127.624C495.504 128.854 493.043 130.305 490.934 131.975C488.824 133.645 486.993 135.622 485.44 137.907L485.001 138.347C483.917 138.786 482.789 139.372 481.617 140.104C480.445 140.837 479.273 141.657 478.102 142.565C476.959 143.474 475.86 144.455 474.806 145.51C473.78 146.535 472.857 147.59 472.037 148.674C471.979 148.908 471.964 149.143 471.993 149.377C472.022 149.582 472.037 149.802 472.037 150.036C472.037 151.589 472.154 153.112 472.389 154.606C472.623 156.071 473.019 157.551 473.575 159.045L473.751 159.484L473.575 159.836C473.546 159.895 473.385 160.158 473.092 160.627C472.799 161.066 472.315 161.55 471.642 162.077C470.968 162.604 470.045 163.088 468.873 163.527C467.73 163.967 466.295 164.187 464.566 164.187C462.838 164.187 461.402 163.952 460.26 163.483C459.146 163.015 458.253 162.502 457.579 161.945C456.935 161.389 456.48 160.876 456.217 160.407C455.953 159.909 455.821 159.631 455.821 159.572L455.646 159.133L455.821 158.781C456.495 157.141 456.993 155.471 457.315 153.771C457.638 152.072 457.799 150.314 457.799 148.498C457.799 147.268 457.726 146.037 457.579 144.807C457.462 143.547 457.242 142.258 456.92 140.939V140.412C457.271 138.947 457.55 137.512 457.755 136.105C457.989 134.699 458.106 133.308 458.106 131.931C458.106 130.349 457.975 128.825 457.711 127.36C457.447 125.866 457.096 124.372 456.656 122.878L456.568 122.482L456.744 122.131C458.004 118.908 458.634 115.7 458.634 112.507C458.634 111.247 458.531 109.987 458.326 108.728C458.15 107.468 457.857 106.179 457.447 104.86L457.271 104.333L457.623 103.85C457.652 103.82 457.77 103.703 457.975 103.498C458.18 103.264 458.487 103 458.897 102.707C459.308 102.385 459.835 102.077 460.479 101.784C461.124 101.462 461.886 101.198 462.765 100.993C463.321 100.114 463.951 99.4258 464.654 98.9277C465.357 98.4004 466.017 98.0049 466.632 97.7412C467.276 97.4775 467.818 97.3018 468.258 97.2139C468.727 97.126 468.99 97.0674 469.049 97.0381H469.532L469.884 97.3018C470.821 98.1514 471.759 98.8838 472.696 99.499C473.634 100.085 474.601 100.612 475.597 101.081C476.622 101.521 477.706 101.901 478.849 102.224C479.991 102.546 481.236 102.824 482.584 103.059C482.73 103.059 482.877 103.073 483.023 103.103C483.17 103.132 483.316 103.146 483.463 103.146H483.814L484.21 103.41C485.382 104.406 486.495 105.271 487.55 106.003C488.634 106.706 489.747 107.307 490.89 107.805C492.032 108.273 493.233 108.64 494.493 108.903C495.753 109.167 497.145 109.343 498.668 109.431H499.239L499.591 109.914C499.591 109.973 499.635 110.104 499.723 110.31C499.84 110.515 499.957 110.808 500.074 111.188C500.191 111.54 500.294 111.979 500.382 112.507C500.499 113.005 500.558 113.576 500.558 114.221C500.558 114.807 500.499 115.437 500.382 116.11C500.294 116.784 500.118 117.502 499.854 118.264C499.415 119.494 498.902 120.52 498.316 121.34C498.639 122.102 498.844 122.834 498.932 123.537C499.049 124.211 499.107 124.797 499.107 125.295C499.107 125.734 499.078 126.101 499.02 126.394C498.961 126.687 498.932 126.862 498.932 126.921ZM479.068 118.879L478.497 118.615C477.384 118 476.344 117.414 475.377 116.857C474.41 116.301 473.473 115.817 472.564 115.407C472.564 116.491 472.652 117.561 472.828 118.615C473.004 119.641 473.253 120.695 473.575 121.779V122.395C472.843 124.885 472.389 127.316 472.213 129.689C472.711 129.191 473.18 128.693 473.619 128.195C474.088 127.668 474.366 127.243 474.454 126.921L474.718 126.569L475.113 126.481C478.98 125.017 482.306 122.878 485.089 120.065C484.151 119.743 483.185 119.494 482.188 119.318C481.222 119.143 480.182 118.996 479.068 118.879ZM535.011 131.931C535.011 133.249 534.835 134.406 534.483 135.402C534.132 136.369 533.736 137.189 533.297 137.863C532.857 138.537 532.447 139.05 532.066 139.401C531.715 139.753 531.524 139.943 531.495 139.973L531.056 140.324L530.44 140.148C528.8 139.592 527.35 139.182 526.09 138.918C524.859 138.654 523.629 138.522 522.398 138.522C521.49 138.522 520.597 138.61 519.718 138.786L519.981 139.313L520.157 139.709L519.981 140.061C519.278 142.053 518.795 144.03 518.531 145.993C519 145.876 519.527 145.773 520.113 145.686C520.699 145.598 521.256 145.524 521.783 145.466C522.311 145.407 522.75 145.363 523.102 145.334C523.453 145.305 523.644 145.29 523.673 145.29L524.024 145.158L524.376 145.378C526.046 146.052 527.467 146.564 528.639 146.916C529.811 147.268 530.997 147.443 532.198 147.443C533.019 147.443 533.912 147.355 534.879 147.18C535.846 147.004 536.944 146.755 538.175 146.433L538.702 146.257L539.142 146.608C539.171 146.667 539.332 146.857 539.625 147.18C539.947 147.473 540.284 147.941 540.636 148.586C540.987 149.201 541.31 149.992 541.603 150.959C541.896 151.896 542.042 153.024 542.042 154.343C542.013 155.661 541.808 156.804 541.427 157.771C541.046 158.737 540.636 159.558 540.196 160.231C539.757 160.876 539.347 161.374 538.966 161.726C538.585 162.077 538.38 162.268 538.351 162.297L537.779 162.561L537.252 162.385C535.523 161.74 534.088 161.286 532.945 161.022C531.803 160.729 530.689 160.583 529.605 160.583C528.844 160.583 528.053 160.656 527.232 160.803C526.412 160.92 525.46 161.11 524.376 161.374H523.761C522.94 161.228 522.12 161.066 521.3 160.891C520.509 160.686 519.703 160.495 518.883 160.319C518.59 160.642 518.209 160.993 517.74 161.374C517.301 161.726 516.744 162.048 516.07 162.341C515.426 162.634 514.664 162.868 513.785 163.044C512.936 163.249 511.969 163.352 510.885 163.352C509.156 163.352 507.721 163.117 506.578 162.648C505.465 162.18 504.571 161.667 503.897 161.11C503.253 160.524 502.799 159.997 502.535 159.528C502.271 159.03 502.14 158.752 502.14 158.693L501.964 158.342L502.14 157.858C502.813 156.247 503.312 154.592 503.634 152.893C503.956 151.193 504.117 149.465 504.117 147.707C504.117 146.477 504.044 145.231 503.897 143.972C503.78 142.712 503.561 141.408 503.238 140.061V139.489C503.59 138.054 503.868 136.647 504.073 135.271C504.308 133.864 504.425 132.458 504.425 131.052C504.425 129.499 504.293 127.976 504.029 126.481C503.766 124.987 503.414 123.508 502.975 122.043L502.887 121.604L503.062 121.252C503.707 119.67 504.176 118.088 504.469 116.506C504.791 114.895 504.952 113.298 504.952 111.716C504.952 110.427 504.85 109.152 504.645 107.893C504.469 106.604 504.176 105.3 503.766 103.981L503.59 103.41L503.941 102.971C503.971 102.941 504.146 102.766 504.469 102.443C504.791 102.092 505.274 101.726 505.919 101.345C506.593 100.935 507.428 100.583 508.424 100.29C509.42 99.9678 510.606 99.8066 511.983 99.8066C513.565 99.8066 514.913 100.026 516.026 100.466C517.14 100.905 518.033 101.374 518.707 101.872C519.557 101.784 520.45 101.652 521.388 101.477C522.325 101.301 523.263 101.052 524.2 100.729L524.552 100.554L525.035 100.642C526.441 101.081 527.657 101.418 528.683 101.652C529.737 101.857 530.733 101.96 531.671 101.96C532.696 101.96 533.766 101.828 534.879 101.564C535.992 101.301 537.296 100.905 538.79 100.378L539.317 100.158L539.801 100.466C539.83 100.495 540.021 100.656 540.372 100.949C540.724 101.242 541.104 101.696 541.515 102.312C541.925 102.897 542.306 103.659 542.657 104.597C543.038 105.505 543.272 106.618 543.36 107.937V108.728C543.36 109.899 543.214 110.939 542.921 111.848C542.628 112.756 542.291 113.532 541.91 114.177C541.559 114.792 541.222 115.261 540.899 115.583C540.606 115.905 540.445 116.081 540.416 116.11L539.977 116.462L539.317 116.286C537.911 115.964 536.71 115.729 535.714 115.583C534.718 115.407 533.795 115.319 532.945 115.319C531.949 115.319 530.953 115.437 529.957 115.671C528.99 115.876 527.818 116.198 526.441 116.638L525.826 116.726C524.596 116.491 523.409 116.315 522.267 116.198C521.153 116.081 520.025 116.022 518.883 116.022C518.971 116.843 519.088 117.663 519.234 118.483C519.41 119.274 519.63 120.08 519.894 120.9V121.516C519.718 122.043 519.571 122.57 519.454 123.098C519.366 123.596 519.278 124.123 519.19 124.68C520.04 124.914 520.831 125.075 521.563 125.163C522.325 125.251 523.116 125.295 523.937 125.295C525.021 125.295 526.119 125.207 527.232 125.031C528.346 124.826 529.562 124.519 530.88 124.108L531.407 123.933L531.847 124.284C531.876 124.313 532.052 124.489 532.374 124.812C532.726 125.104 533.092 125.573 533.473 126.218C533.883 126.833 534.234 127.624 534.527 128.591C534.85 129.528 535.011 130.642 535.011 131.931ZM589.283 127.448L589.195 127.976L588.668 128.239C586.764 129.06 585.021 129.982 583.438 131.008C581.886 132.004 580.479 133.161 579.22 134.479C579.718 135.827 580.362 137.043 581.153 138.127C581.944 139.182 582.984 140.31 584.273 141.511L584.537 141.95C585.035 144.47 585.855 146.755 586.998 148.806C588.17 150.856 589.752 152.731 591.744 154.431L592.096 154.65V155.09C592.096 155.148 592.066 155.427 592.008 155.925C591.979 156.423 591.803 157.038 591.48 157.771C591.188 158.503 590.689 159.294 589.986 160.144C589.283 160.993 588.272 161.799 586.954 162.561C585.929 163.146 584.962 163.542 584.054 163.747C583.175 163.981 582.398 164.099 581.725 164.099C581.109 164.099 580.567 164.04 580.099 163.923C579.63 163.806 579.234 163.674 578.912 163.527C578.59 163.381 578.341 163.249 578.165 163.132C577.989 163.015 577.887 162.941 577.857 162.912L577.594 162.736L577.506 162.297C577.359 161.154 577.125 160.085 576.803 159.089C576.51 158.093 576.129 157.126 575.66 156.188C575.191 155.251 574.635 154.328 573.99 153.42C573.375 152.512 572.687 151.589 571.925 150.651C571.632 150.358 571.427 150.183 571.31 150.124L571.046 149.86V149.509C570.812 148.132 570.533 146.916 570.211 145.861C569.918 144.777 569.508 143.767 568.98 142.829C567.75 143.737 566.563 144.748 565.421 145.861C564.308 146.975 563.297 148.132 562.389 149.333C562.33 149.567 562.315 149.787 562.345 149.992C562.374 150.197 562.389 150.417 562.389 150.651C562.389 152.204 562.506 153.728 562.74 155.222C562.975 156.687 563.37 158.166 563.927 159.66L564.103 160.012L563.927 160.495C563.897 160.554 563.736 160.817 563.443 161.286C563.15 161.726 562.667 162.209 561.993 162.736C561.319 163.264 560.396 163.732 559.225 164.143C558.082 164.582 556.646 164.802 554.918 164.802C553.189 164.802 551.754 164.567 550.611 164.099C549.498 163.659 548.604 163.161 547.931 162.604C547.286 162.019 546.832 161.491 546.568 161.022C546.305 160.554 546.173 160.29 546.173 160.231L545.997 159.748L546.173 159.396C546.847 157.756 547.345 156.101 547.667 154.431C547.989 152.731 548.15 150.974 548.15 149.157C548.15 147.927 548.077 146.696 547.931 145.466C547.813 144.206 547.594 142.917 547.271 141.599V141.027C547.623 139.592 547.901 138.171 548.106 136.765C548.341 135.329 548.458 133.938 548.458 132.59C548.458 131.008 548.326 129.47 548.062 127.976C547.799 126.481 547.447 124.987 547.008 123.493L546.92 123.142L547.096 122.79C548.355 119.567 548.985 116.345 548.985 113.122C548.985 111.804 548.883 110.515 548.678 109.255C548.502 107.995 548.209 106.706 547.799 105.388L547.623 104.86L547.975 104.421C548.004 104.392 548.121 104.274 548.326 104.069C548.531 103.835 548.839 103.571 549.249 103.278C549.659 102.956 550.187 102.648 550.831 102.355C551.476 102.033 552.237 101.784 553.116 101.608C553.673 100.729 554.303 100.041 555.006 99.543C555.709 99.0156 556.368 98.6201 556.983 98.3564C557.628 98.0928 558.17 97.917 558.609 97.8291C559.078 97.7412 559.342 97.6826 559.4 97.6533H559.884L560.235 97.917C561.085 98.6787 562.022 99.4111 563.048 100.114C564.073 100.817 565.157 101.433 566.3 101.96C567.442 102.487 568.644 102.912 569.903 103.234C571.163 103.527 572.467 103.674 573.814 103.674L574.562 103.981C575.733 105.007 576.847 105.886 577.901 106.618C578.985 107.321 580.099 107.907 581.241 108.376C582.384 108.845 583.585 109.211 584.845 109.475C586.104 109.738 587.496 109.914 589.02 110.002L589.591 110.09L589.942 110.529C589.942 110.588 589.986 110.72 590.074 110.925C590.191 111.13 590.309 111.423 590.426 111.804C590.543 112.155 590.646 112.595 590.733 113.122C590.851 113.62 590.909 114.191 590.909 114.836C590.909 115.422 590.851 116.052 590.733 116.726C590.646 117.399 590.47 118.117 590.206 118.879C589.796 120.08 589.283 121.076 588.668 121.867C588.99 122.629 589.195 123.347 589.283 124.021C589.4 124.665 589.459 125.236 589.459 125.734C589.459 126.232 589.43 126.628 589.371 126.921C589.312 127.214 589.283 127.39 589.283 127.448ZM569.42 119.45L568.849 119.274C567.735 118.63 566.695 118.029 565.729 117.473C564.762 116.887 563.824 116.374 562.916 115.935C562.916 117.019 563.004 118.103 563.18 119.187C563.355 120.241 563.604 121.311 563.927 122.395V123.054C563.194 125.515 562.74 127.917 562.564 130.261C563.033 129.792 563.458 129.323 563.839 128.854C564.249 128.386 564.571 127.946 564.806 127.536L565.465 127.009C567.398 126.276 569.2 125.397 570.87 124.372C572.569 123.317 574.122 122.058 575.528 120.593C573.712 120.007 571.676 119.626 569.42 119.45ZM612.794 103.762L612.53 104.333C612.003 105.944 611.593 107.526 611.3 109.079C611.036 110.603 610.904 112.141 610.904 113.693C610.904 114.924 610.978 116.125 611.124 117.297C611.3 118.439 611.563 119.597 611.915 120.769V121.428C611.007 124.621 610.553 127.683 610.553 130.612C610.553 132.106 610.67 133.571 610.904 135.007C611.139 136.413 611.505 137.819 612.003 139.226L612.179 139.621L612.003 139.973C611.446 141.467 611.036 142.976 610.772 144.499C610.509 145.993 610.377 147.517 610.377 149.069C610.377 150.593 610.494 152.102 610.729 153.596C610.963 155.061 611.358 156.54 611.915 158.034L612.091 158.518L611.915 158.869C611.886 158.928 611.725 159.191 611.432 159.66C611.139 160.1 610.655 160.583 609.981 161.11C609.308 161.638 608.385 162.121 607.213 162.561C606.07 162.971 604.635 163.176 602.906 163.176C601.178 163.176 599.742 162.956 598.6 162.517C597.486 162.048 596.593 161.535 595.919 160.979C595.274 160.393 594.82 159.865 594.557 159.396C594.293 158.928 594.161 158.664 594.161 158.605L593.985 158.122L594.161 157.771C594.835 156.13 595.333 154.475 595.655 152.805C595.978 151.105 596.139 149.348 596.139 147.531C596.139 146.301 596.065 145.07 595.919 143.84C595.802 142.58 595.582 141.291 595.26 139.973V139.401C595.611 137.966 595.89 136.56 596.095 135.183C596.329 133.776 596.446 132.37 596.446 130.964C596.446 129.382 596.314 127.844 596.051 126.35C595.787 124.855 595.436 123.361 594.996 121.867L594.908 121.516L595.084 121.164C596.344 117.941 596.974 114.733 596.974 111.54C596.974 110.251 596.871 108.977 596.666 107.717C596.49 106.457 596.197 105.168 595.787 103.85L595.611 103.322L595.963 102.883C595.992 102.854 596.168 102.678 596.49 102.355C596.812 102.004 597.296 101.638 597.94 101.257C598.614 100.847 599.449 100.495 600.445 100.202C601.441 99.8799 602.628 99.7188 604.005 99.7188C605.411 99.7188 606.627 99.9092 607.652 100.29C608.678 100.642 609.527 101.037 610.201 101.477C610.904 101.916 611.432 102.326 611.783 102.707C612.135 103.088 612.325 103.293 612.354 103.322L612.794 103.762ZM644.742 141.115L644.566 141.511C643.482 144.499 642.94 147.341 642.94 150.036C642.94 151.354 643.058 152.673 643.292 153.991C643.556 155.31 643.937 156.716 644.435 158.21L644.654 158.693L644.435 159.045C644.405 159.104 644.244 159.367 643.951 159.836C643.658 160.275 643.175 160.759 642.501 161.286C641.827 161.813 640.919 162.297 639.776 162.736C638.634 163.146 637.198 163.352 635.47 163.352C633.741 163.352 632.306 163.132 631.163 162.692C630.05 162.224 629.171 161.711 628.526 161.154C627.882 160.568 627.428 160.041 627.164 159.572C626.9 159.104 626.754 158.84 626.725 158.781L626.549 158.342L626.725 157.946C627.398 156.335 627.896 154.768 628.219 153.244C628.541 151.721 628.702 150.168 628.702 148.586C628.702 147.502 628.629 146.389 628.482 145.246C628.365 144.074 628.146 142.829 627.823 141.511V140.939C628.233 139.445 628.526 138.039 628.702 136.721C628.878 135.402 628.966 134.113 628.966 132.854C628.966 130.188 628.512 127.492 627.604 124.768L627.428 124.372L627.604 124.021C628.248 122.438 628.702 120.856 628.966 119.274C629.259 117.663 629.435 116.066 629.493 114.484H629.054C626.065 114.484 623.092 115.026 620.133 116.11L619.781 116.198L619.342 116.022C619.283 116.022 619.02 115.891 618.551 115.627C618.082 115.363 617.555 114.909 616.969 114.265C616.412 113.62 615.914 112.756 615.475 111.672C615.006 110.559 614.771 109.152 614.771 107.453C614.771 105.871 614.991 104.582 615.431 103.586C615.87 102.561 616.354 101.755 616.881 101.169C617.438 100.554 617.936 100.129 618.375 99.8945C618.844 99.6309 619.107 99.4844 619.166 99.4551L619.518 99.2793L619.957 99.4551C621.246 99.9238 622.535 100.261 623.824 100.466C625.113 100.642 626.446 100.729 627.823 100.729C629.054 100.729 630.372 100.686 631.778 100.598C633.214 100.48 634.562 100.188 635.821 99.7188L636.173 99.543L636.524 99.7188C638.019 100.217 639.425 100.583 640.743 100.817C642.091 101.052 643.424 101.169 644.742 101.169C647.115 101.169 649.723 100.715 652.564 99.8066L653.092 99.6309L653.531 99.9824C653.561 100.012 653.751 100.173 654.103 100.466C654.454 100.759 654.82 101.213 655.201 101.828C655.611 102.414 655.978 103.176 656.3 104.113C656.651 105.021 656.842 106.105 656.871 107.365C656.871 108.684 656.71 109.841 656.388 110.837C656.065 111.804 655.699 112.624 655.289 113.298C654.908 113.942 654.542 114.44 654.19 114.792C653.839 115.114 653.648 115.319 653.619 115.407L653.18 115.759L652.564 115.583C651.07 115.114 649.693 114.792 648.434 114.616C647.203 114.411 645.973 114.309 644.742 114.309H643.468C643.409 114.719 643.395 115.114 643.424 115.495C643.453 115.847 643.468 116.198 643.468 116.55C643.468 117.78 643.541 118.981 643.688 120.153C643.863 121.325 644.112 122.497 644.435 123.669V124.196C643.995 125.837 643.658 127.346 643.424 128.723C643.219 130.1 643.116 131.447 643.116 132.766C643.116 134.113 643.233 135.432 643.468 136.721C643.702 138.01 644.068 139.357 644.566 140.764L644.742 141.115ZM702.354 109.519L701.959 110.002C697.945 114.543 695.675 119.553 695.147 125.031V125.295L694.884 125.559C692.774 128.225 691.178 130.92 690.094 133.645C689.01 136.369 688.38 139.196 688.204 142.126V142.478L687.94 142.741C685.831 145.144 684.19 147.736 683.019 150.52C681.847 153.303 681.173 156.291 680.997 159.484V159.924L680.646 160.231C680.616 160.29 680.484 160.407 680.25 160.583C680.045 160.759 679.723 160.949 679.283 161.154C678.873 161.33 678.36 161.506 677.745 161.682C677.13 161.828 676.412 161.901 675.592 161.901C674.918 161.901 674.171 161.828 673.351 161.682C672.56 161.535 671.695 161.257 670.758 160.847C669.117 160.202 667.857 159.455 666.979 158.605C666.129 157.756 665.499 156.95 665.089 156.188C664.708 155.427 664.488 154.768 664.43 154.211C664.371 153.654 664.342 153.347 664.342 153.288L664.737 152.453C666.817 150.344 668.487 147.971 669.747 145.334C671.007 142.697 671.915 139.738 672.472 136.457V136.369C672.003 135.549 671.476 134.699 670.89 133.82C670.304 132.941 669.674 132.092 669 131.271C668.355 130.451 667.682 129.704 666.979 129.03C666.305 128.327 665.616 127.741 664.913 127.272L664.605 127.097L664.518 126.657C663.609 123.698 662.335 121.062 660.694 118.747C659.083 116.403 657.032 114.323 654.542 112.507L654.103 112.155V111.628C654.103 111.716 654.161 111.54 654.278 111.101C654.366 110.632 654.557 110.046 654.85 109.343C655.113 108.64 655.494 107.863 655.992 107.014C656.49 106.164 657.135 105.388 657.926 104.685C658.746 103.952 659.728 103.337 660.87 102.839C662.013 102.341 663.36 102.092 664.913 102.092C665.499 102.092 665.968 102.136 666.319 102.224C666.7 102.312 666.92 102.355 666.979 102.355L667.506 102.531L667.682 103.059C669.645 108.742 672.823 113.21 677.218 116.462L677.569 116.989C677.774 117.487 677.979 118.029 678.185 118.615C678.419 119.172 678.697 119.714 679.02 120.241C679.02 120.153 679.034 120.065 679.063 119.978C679.093 119.89 679.107 119.772 679.107 119.626V119.274L679.371 119.011C681.568 116.726 683.253 114.294 684.425 111.716C685.597 109.138 686.344 106.311 686.666 103.234V102.619L687.237 102.355C687.296 102.297 687.633 102.15 688.248 101.916C688.893 101.652 689.815 101.521 691.017 101.521C692.452 101.521 693.727 101.711 694.84 102.092C695.953 102.443 696.92 102.912 697.74 103.498C698.59 104.055 699.293 104.655 699.85 105.3C700.436 105.944 700.904 106.545 701.256 107.102C701.607 107.658 701.856 108.127 702.003 108.508C702.179 108.859 702.267 109.021 702.267 108.991L702.354 109.519Z" fill="white"/>
<path d="M207.25 85.5H190.991C191.811 83.3687 192.333 81.0312 192.333 78.625C192.333 67.2125 182.339 58 169.958 58C162.127 58 155.34 61.7125 151.313 67.2812L147.583 71.8875L143.854 67.2125C139.827 61.7125 133.04 58 125.208 58C112.828 58 102.833 67.2125 102.833 78.625C102.833 81.0312 103.355 83.3687 104.176 85.5H87.9167C79.6379 85.5 73.0746 91.6187 73.0746 99.25L73 174.875C73 182.506 79.6379 188.625 87.9167 188.625H207.25C215.529 188.625 222.167 182.506 222.167 174.875V99.25C222.167 91.6187 215.529 85.5 207.25 85.5ZM169.958 71.75C174.06 71.75 177.417 74.8437 177.417 78.625C177.417 82.4063 174.06 85.5 169.958 85.5C165.856 85.5 162.5 82.4063 162.5 78.625C162.5 74.8437 165.856 71.75 169.958 71.75ZM125.208 71.75C129.31 71.75 132.667 74.8437 132.667 78.625C132.667 82.4063 129.31 85.5 125.208 85.5C121.106 85.5 117.75 82.4063 117.75 78.625C117.75 74.8437 121.106 71.75 125.208 71.75ZM207.25 174.875H87.9167V161.125H207.25V174.875ZM207.25 140.5H87.9167V99.25H125.805L110.292 118.706L122.374 126.75L140.125 104.475L147.583 95.125L155.042 104.475L172.793 126.75L184.875 118.706L169.362 99.25H207.25V140.5Z" fill="white"/>
</svg>
